Coordinates
version=1
nRows=18
nColumns=38
inDegrees=yes

Units are S.I. units (second, meters, Newtons, ...)
Angles are in degrees.

endheader
time	pelvis_tilt	pelvis_list	pelvis_rotation	pelvis_tx	pelvis_ty	pelvis_tz	hip_flexion_r	hip_adduction_r	hip_rotation_r	knee_angle_r	ankle_angle_r	subtalar_angle_r	mtp_angle_r	hip_flexion_l	hip_adduction_l	hip_rotation_l	knee_angle_l	ankle_angle_l	subtalar_angle_l	mtp_angle_l	lumbar_extension	lumbar_bending	lumbar_rotation	arm_flex_r	arm_add_r	arm_rot_r	elbow_flex_r	pro_sup_r	wrist_flex_r	wrist_dev_r	arm_flex_l	arm_add_l	arm_rot_l	elbow_flex_l	pro_sup_l	wrist_flex_l	wrist_dev_l
      1.70000000	      0.84385378	      0.99369175	      7.46462794	      0.22562211	      0.89463994	      0.24409135	     27.92821383	     -0.99107754	    -10.94570151	    -20.88046744	     -5.26859347	     -6.64467191	     11.18949566	    -18.15204546	      0.58023465	      4.56761971	    -22.42689996	      0.89310059	     11.77802558	     23.15854935	     -5.53420121	      1.19307503	    -13.00796986	    -10.57510055	    -14.38616471	     13.04914867	      6.64149255	     86.51662706	      0.00000000	      0.00000000	      4.55405614	    -17.64085959	     20.61847257	     30.71898990	     86.51662706	      0.00000000	      0.00000000
      1.71000000	      0.81017151	      0.22309852	      7.27915722	      0.24129739	      0.89458412	      0.24519046	     28.06536366	     -0.00005156	    -10.33147178	    -22.37512338	     -6.63652049	     -8.09677453	     10.86967993	    -17.59223872	     -0.37888587	      3.73308801	    -24.44396747	     -1.90484094	     12.34772250	     25.12920606	     -5.14196070	      2.10605201	    -12.61852163	    -10.57817284	    -14.57210634	     13.39474727	      6.67808596	     86.51662706	      0.00000000	      0.00000000	      3.97275894	    -17.30804506	     20.11544551	     30.78030480	     86.51662706	      0.00000000	      0.00000000
      1.72000000	      0.77577733	     -0.64040098	      7.04609706	      0.25686146	      0.89478735	      0.24627767	     28.18847451	      1.12933230	     -9.66168957	    -23.88325431	     -7.63553532	     -9.24945275	     10.51358332	    -16.82139638	     -1.41117777	      2.94531108	    -26.69877078	     -5.02139614	     12.71636969	     26.64178855	     -4.77530163	      3.11604269	    -12.17557256	    -10.51446507	    -14.78649940	     13.65352286	      6.79532638	     86.51662706	      0.00000000	      0.00000000	      3.39305174	    -16.95612111	     19.65179158	     30.79272770	     86.51662706	      0.00000000	      0.00000000
      1.73000000	      0.74047587	     -1.54537160	      6.77890286	      0.27229912	      0.89500914	      0.24736129	     28.24742630	      2.34712220	     -8.99833973	    -25.31984071	     -8.16748868	    -10.09620787	     10.12587200	    -15.84407625	     -2.47443313	      2.25889589	    -29.20014677	     -8.33990021	     12.82966331	     27.58229454	     -4.44545739	      4.16939631	    -11.70383829	    -10.38686982	    -15.02186178	     13.81033978	      7.00395931	     86.51662706	      0.00000000	      0.00000000	      2.82489186	    -16.60190997	     19.25087992	     30.75010090	     86.51662706	      0.00000000	      0.00000000
      1.74000000	      0.70090830	     -2.44446239	      6.49686881	      0.28749310	      0.89517706	      0.24850167	     28.19040057	      3.59143662	     -8.41296017	    -26.58960760	     -8.19857388	    -10.64892502	      9.70802498	    -14.66910882	     -3.52568448	      1.72531701	    -31.94436941	    -11.69440435	     12.64646202	     27.88411507	     -4.16499479	      5.21416865	    -11.22552464	    -10.20211334	    -15.26847374	     13.85461851	      7.31431478	     86.51662706	      0.00000000	      0.00000000	      2.28258681	    -16.26056699	     18.93644735	     30.64604708	     86.51662706	      0.00000000	      0.00000000
      1.75000000	      0.65698592	     -3.30295489	      6.22745227	      0.30232389	      0.89537934	      0.24971852	     27.97101307	      4.80041533	     -7.96730110	    -27.61537664	     -7.75898646	    -10.92968857	      9.25986801	    -13.30668946	     -4.52521940	      1.38847351	    -34.91260123	    -14.88504072	     12.14477152	     27.54004852	     -3.94811289	      6.21029201	    -10.75887616	     -9.96901546	    -15.51590438	     13.78158287	      7.73503487	     86.51662706	      0.00000000	      0.00000000	      1.78510991	    -15.94276450	     18.73080886	     30.47345080	     86.51662706	      0.00000000	      0.00000000
      1.76000000	      0.61784710	     -4.10014369	      6.00363565	      0.31675410	      0.89575091	      0.25095145	     27.55648033	      5.92059560	     -7.69916841	    -28.35443038	     -6.93047061	    -10.96552151	      8.78161365	    -11.76834256	     -5.43868818	      1.27975781	    -38.06909767	    -17.70210494	     11.32786913	     26.60655141	     -3.80855920	      7.13330224	    -10.31786817	     -9.69718154	    -15.75497752	     13.59311705	      8.27198905	     86.51662706	      0.00000000	      0.00000000	      1.35402599	    -15.65353941	     18.65303232	     30.22452594	     86.51662706	      0.00000000	      0.00000000
      1.77000000	      0.60023175	     -4.82437968	      5.85753511	      0.33081675	      0.89639437	      0.25208730	     26.93249232	      6.91171393	     -7.61774348	    -28.80079681	     -5.82564516	    -10.78666946	      8.27578957	    -10.06969015	     -6.23716675	      1.41347065	    -41.36006808	    -19.95525672	     10.22911592	     25.19852042	     -3.75652363	      7.97109435	     -9.91232339	     -9.39606938	    -15.97939143	     13.29800509	      8.92767431	     86.51662706	      0.00000000	      0.00000000	      1.00975144	    -15.39311465	     18.71717430	     29.89159592	     86.51662706	      0.00000000	      0.00000000
      1.78000000	      0.62057930	     -5.46534430	      5.81343435	      0.34456186	      0.89737750	      0.25300528	     26.10398079	      7.74920672	     -7.70738118	    -28.97673464	     -4.56500840	    -10.42698603	      7.74852719	     -8.23358138	     -6.89574231	      1.78409561	    -44.71386906	    -21.50265503	      8.91323302	     23.47472493	     -3.79600781	      8.71666293	     -9.54795191	     -9.07434092	    -16.18638298	     12.91142069	      9.70124037	     86.51662706	      0.00000000	      0.00000000	      0.76736872	    -15.15918240	     18.93068937	     29.46849640	     86.51662706	      0.00000000	      0.00000000
      1.79000000	      0.68712842	     -6.00931602	      5.88266446	      0.35802274	      0.89874100	      0.25362495	     25.09180191	      8.42420790	     -7.93589502	    -28.91958281	     -3.25734349	     -9.92441238	      7.20983037	     -6.29010883	     -7.39139679	      2.36653616	    -48.04353446	    -22.27375125	      7.47194287	     21.61622029	     -3.92336563	      9.36123214	     -9.22614726	     -8.73953765	    -16.37634884	     12.45366239	     10.58907821	     86.51662706	      0.00000000	      0.00000000	      0.63321018	    -14.94954392	     19.29316038	     28.95231166	     86.51662706	      0.00000000	      0.00000000
      1.80000000	      0.79718574	     -6.44056826	      6.06145181	      0.37121048	      0.90047336	      0.25394453	     23.92677789	      8.94053535	     -8.26318626	    -28.66995229	     -1.98698587	     -9.32024586	      6.67280519	     -4.27284655	     -7.70175577	      3.11941381	    -51.25273943	    -22.27957745	      6.01310507	     19.80196454	     -4.12707574	      9.89116385	     -8.94370956	     -8.39815730	    -16.55183070	     11.94825124	     11.58575828	     86.51662706	      0.00000000	      0.00000000	      0.60304137	    -14.76396265	     19.79552659	     28.34503184	     86.51662706	      0.00000000	      0.00000000
      1.81000000	      0.93927243	     -6.74605206	      6.33179121	      0.38413444	      0.90250195	      0.25403778	     22.64386316	      9.30967676	     -8.64763836	    -28.26461510	     -0.80877483	     -8.65694494	      6.15214092	     -2.21457985	     -7.80723448	      3.99072444	    -54.24582755	    -21.60678130	      4.64464989	     18.18652720	     -4.38876388	     10.28954171	     -8.69287050	     -8.05607835	    -16.71643438	     11.41960661	     12.68505160	     86.51662706	      0.00000000	      0.00000000	      0.66214180	    -14.60458502	     20.41998886	     27.65471069	     86.51662706	      0.00000000	      0.00000000
      1.82000000	      1.09692612	     -6.91895739	      6.66484627	      0.39683515	      0.90473795	      0.25401398	     21.27789891	      9.54608572	     -9.04972366	    -27.73435463	      0.25038278	     -7.97504411	      5.66222154	     -0.14496140	     -7.69660162	      4.92421918	    -56.93968805	    -20.39644326	      3.45687398	     16.88372410	     -4.68548333	     10.54087674	     -8.46195014	     -7.71912519	    -16.87407472	     10.89058849	     13.88080612	     86.51662706	      0.00000000	      0.00000000	      0.78715493	    -14.47497592	     21.14072077	     26.89581109	     86.51662706	      0.00000000	      0.00000000
      1.83000000	      1.25229776	     -6.95962497	      7.02609474	      0.40938780	      0.90711565	      0.25396970	     19.86064738	      9.66467641	     -9.43361617	    -27.10487403	      1.18549559	     -7.31010699	      5.21523453	      1.91082534	     -7.37263290	      5.86440822	    -59.27260595	    -18.81381059	      2.50767040	     15.95792017	     -4.99289725	     10.63621874	     -8.23668832	     -7.39347491	    -17.02865492	     10.38022958	     15.16753868	     86.51662706	      0.00000000	      0.00000000	      0.94931420	    -14.37838522	     21.92541107	     26.08860446	     86.51662706	      0.00000000	      0.00000000
      1.84000000	      1.38865291	     -6.87483778	      7.38108267	      0.42186978	      0.90958226	      0.25395777	     18.41863141	      9.68057283	     -9.76782976	    -26.39833267	      2.00558038	     -6.69053981	      4.81961714	      3.93328302	     -6.85456196	      6.75915021	    -61.20710065	    -17.01774735	      1.81451113	     15.42285365	     -5.28849751	     10.57639352	     -8.00194061	     -7.08560638	    -17.18408036	      9.90196398	     16.54069125	     86.51662706	      0.00000000	      0.00000000	      1.11845708	    -14.31608474	     22.73753035	     25.25767018	     86.51662706	      0.00000000	      0.00000000
      1.85000000	      1.49189200	     -6.67709382	      7.70028630	      0.43433864	      0.91207811	      0.25398971	     16.97207912	      9.60975638	    -10.02553900	    -25.63402374	      2.72617457	     -6.13668274	      4.47911117	      5.90936147	     -6.17633682	      7.56072074	    -62.72743587	    -15.13783418	      1.35494850	     15.24668695	     -5.55394958	     10.37248691	     -7.74325272	     -6.80165905	    -17.34439048	      9.46260146	     17.99655441	     86.51662706	      0.00000000	      0.00000000	      1.26703322	    -14.28646622	     23.53909933	     24.42968991	     86.51662706	      0.00000000	      0.00000000
      1.86000000	      1.55197610	     -6.38434639	      7.96175030	      0.44683074	      0.91453775	      0.25406348	     15.53532416	      9.46930706	    -10.18495497	    -24.82821510	      3.36379884	     -5.66108743	      4.19256606	      7.83229368	     -5.38199621	      8.22731935	    -63.83412183	    -13.26362786	      1.07489943	     15.36146946	     -5.77632005	     10.04403399	     -7.44801266	     -6.54637097	    -17.51378916	      9.06220687	     19.53188814	     86.51662706	      0.00000000	      0.00000000	      1.37323913	    -14.28519915	     24.29365910	     23.63085302	     86.51662706	      0.00000000	      0.00000000
      1.87000000	      1.56416004	     -6.01907019	      8.15120624	      0.45935621	      0.91690482	      0.25418919	     14.11831829	      9.27707499	    -10.23001941	    -23.99407227	      3.93292386	     -5.26947956	      3.95446760	      9.69985991	     -4.52032216	      8.72622763	    -64.53789020	    -11.44631640	      0.90200088	     15.67513811	     -5.94858079	      9.61613338	     -7.10630869	     -6.32200253	    -17.69646371	      8.69491248	     21.14330154	     86.51662706	      0.00000000	      0.00000000	      1.42267660	    -14.30626885	     24.96909386	     22.88426909	     86.51662706	      0.00000000	      0.00000000
